<mxfile host="app.diagrams.net" modified="2024-06-10T15:36:58.598Z" agent="Mozilla/5.0 (Windows NT 10.0; Win64; x64) AppleWebKit/537.36 (KHTML, like Gecko) Chrome/125.0.0.0 Safari/537.36 Edg/125.0.0.0" etag="oShgtFD23wxSUeNGH3zk" version="24.4.4" type="device">
  <diagram name="Page-1" id="I8spYym5DHWrB4zC92Lp">
    <mxGraphModel dx="1058" dy="1264" grid="1" gridSize="10" guides="1" tooltips="1" connect="1" arrows="1" fold="1" page="1" pageScale="1" pageWidth="827" pageHeight="1169" math="0" shadow="0">
      <root>
        <mxCell id="0" />
        <mxCell id="1" parent="0" />
        <mxCell id="mkbYFUM2Qebnhvb5KgbY-3" style="edgeStyle=orthogonalEdgeStyle;rounded=0;orthogonalLoop=1;jettySize=auto;html=1;" edge="1" parent="1" source="mkbYFUM2Qebnhvb5KgbY-1" target="mkbYFUM2Qebnhvb5KgbY-2">
          <mxGeometry relative="1" as="geometry" />
        </mxCell>
        <mxCell id="mkbYFUM2Qebnhvb5KgbY-1" value="Start" style="ellipse;whiteSpace=wrap;html=1;" vertex="1" parent="1">
          <mxGeometry x="138.01" y="90" width="40" height="30" as="geometry" />
        </mxCell>
        <mxCell id="mkbYFUM2Qebnhvb5KgbY-5" style="edgeStyle=orthogonalEdgeStyle;rounded=0;orthogonalLoop=1;jettySize=auto;html=1;entryX=0.5;entryY=0;entryDx=0;entryDy=0;" edge="1" parent="1" source="mkbYFUM2Qebnhvb5KgbY-2">
          <mxGeometry relative="1" as="geometry">
            <mxPoint x="158" y="200" as="targetPoint" />
          </mxGeometry>
        </mxCell>
        <mxCell id="mkbYFUM2Qebnhvb5KgbY-2" value="&lt;div&gt;import os&lt;/div&gt;&lt;div&gt;import pandas&lt;/div&gt;" style="rounded=1;whiteSpace=wrap;html=1;" vertex="1" parent="1">
          <mxGeometry x="110.50999999999999" y="140" width="95" height="40" as="geometry" />
        </mxCell>
        <mxCell id="mkbYFUM2Qebnhvb5KgbY-10" style="edgeStyle=orthogonalEdgeStyle;rounded=0;orthogonalLoop=1;jettySize=auto;html=1;entryX=0.5;entryY=0;entryDx=0;entryDy=0;" edge="1" parent="1" source="mkbYFUM2Qebnhvb5KgbY-6" target="mkbYFUM2Qebnhvb5KgbY-9">
          <mxGeometry relative="1" as="geometry" />
        </mxCell>
        <mxCell id="mkbYFUM2Qebnhvb5KgbY-6" value="filename=&quot;tax_records.csv&quot;&lt;div&gt;&lt;span style=&quot;background-color: initial;&quot;&gt;registered=False&lt;/span&gt;&lt;br&gt;&lt;/div&gt;" style="shape=parallelogram;perimeter=parallelogramPerimeter;whiteSpace=wrap;html=1;fixedSize=1;size=-19.5;" vertex="1" parent="1">
          <mxGeometry x="322.24" y="170" width="160.5" height="50" as="geometry" />
        </mxCell>
        <mxCell id="mkbYFUM2Qebnhvb5KgbY-13" style="edgeStyle=orthogonalEdgeStyle;rounded=0;orthogonalLoop=1;jettySize=auto;html=1;entryX=0.5;entryY=0;entryDx=0;entryDy=0;" edge="1" parent="1" source="mkbYFUM2Qebnhvb5KgbY-9" target="mkbYFUM2Qebnhvb5KgbY-12">
          <mxGeometry relative="1" as="geometry" />
        </mxCell>
        <mxCell id="mkbYFUM2Qebnhvb5KgbY-9" value="input user_id,&lt;div&gt;ic_number&lt;/div&gt;" style="shape=parallelogram;perimeter=parallelogramPerimeter;whiteSpace=wrap;html=1;fixedSize=1;" vertex="1" parent="1">
          <mxGeometry x="344.12" y="240" width="116.75" height="40" as="geometry" />
        </mxCell>
        <mxCell id="mkbYFUM2Qebnhvb5KgbY-23" style="edgeStyle=orthogonalEdgeStyle;rounded=0;orthogonalLoop=1;jettySize=auto;html=1;" edge="1" parent="1" source="mkbYFUM2Qebnhvb5KgbY-11" target="mkbYFUM2Qebnhvb5KgbY-15">
          <mxGeometry relative="1" as="geometry" />
        </mxCell>
        <mxCell id="mkbYFUM2Qebnhvb5KgbY-25" style="edgeStyle=orthogonalEdgeStyle;rounded=0;orthogonalLoop=1;jettySize=auto;html=1;entryX=0;entryY=0.5;entryDx=0;entryDy=0;" edge="1" parent="1" source="mkbYFUM2Qebnhvb5KgbY-11" target="mkbYFUM2Qebnhvb5KgbY-16">
          <mxGeometry relative="1" as="geometry" />
        </mxCell>
        <mxCell id="mkbYFUM2Qebnhvb5KgbY-11" value="if verify_user()" style="rhombus;whiteSpace=wrap;html=1;" vertex="1" parent="1">
          <mxGeometry x="347.49" y="350" width="110" height="60" as="geometry" />
        </mxCell>
        <mxCell id="mkbYFUM2Qebnhvb5KgbY-49" style="edgeStyle=orthogonalEdgeStyle;rounded=0;orthogonalLoop=1;jettySize=auto;html=1;entryX=0.5;entryY=0;entryDx=0;entryDy=0;" edge="1" parent="1" source="mkbYFUM2Qebnhvb5KgbY-12" target="mkbYFUM2Qebnhvb5KgbY-11">
          <mxGeometry relative="1" as="geometry" />
        </mxCell>
        <mxCell id="mkbYFUM2Qebnhvb5KgbY-12" value="verify_user()" style="shape=process;whiteSpace=wrap;html=1;backgroundOutline=1;" vertex="1" parent="1">
          <mxGeometry x="341.99" y="300" width="120" height="30" as="geometry" />
        </mxCell>
        <mxCell id="mkbYFUM2Qebnhvb5KgbY-34" style="edgeStyle=orthogonalEdgeStyle;rounded=0;orthogonalLoop=1;jettySize=auto;html=1;" edge="1" parent="1" source="mkbYFUM2Qebnhvb5KgbY-15" target="mkbYFUM2Qebnhvb5KgbY-33">
          <mxGeometry relative="1" as="geometry" />
        </mxCell>
        <mxCell id="mkbYFUM2Qebnhvb5KgbY-15" value="registered=True" style="rounded=0;whiteSpace=wrap;html=1;" vertex="1" parent="1">
          <mxGeometry x="343.37" y="530" width="120" height="40" as="geometry" />
        </mxCell>
        <mxCell id="mkbYFUM2Qebnhvb5KgbY-18" style="edgeStyle=orthogonalEdgeStyle;rounded=0;orthogonalLoop=1;jettySize=auto;html=1;entryX=0.5;entryY=0;entryDx=0;entryDy=0;" edge="1" parent="1" source="mkbYFUM2Qebnhvb5KgbY-16" target="mkbYFUM2Qebnhvb5KgbY-17">
          <mxGeometry relative="1" as="geometry" />
        </mxCell>
        <mxCell id="mkbYFUM2Qebnhvb5KgbY-16" value="&amp;nbsp;input password" style="shape=parallelogram;perimeter=parallelogramPerimeter;whiteSpace=wrap;html=1;fixedSize=1;" vertex="1" parent="1">
          <mxGeometry x="484.12" y="360" width="116.25" height="40" as="geometry" />
        </mxCell>
        <mxCell id="mkbYFUM2Qebnhvb5KgbY-46" style="edgeStyle=orthogonalEdgeStyle;rounded=0;orthogonalLoop=1;jettySize=auto;html=1;" edge="1" parent="1" source="mkbYFUM2Qebnhvb5KgbY-17">
          <mxGeometry relative="1" as="geometry">
            <mxPoint x="542.74" y="469.025634765625" as="targetPoint" />
          </mxGeometry>
        </mxCell>
        <mxCell id="mkbYFUM2Qebnhvb5KgbY-17" value="verify_user()" style="shape=process;whiteSpace=wrap;html=1;backgroundOutline=1;" vertex="1" parent="1">
          <mxGeometry x="482.74" y="420" width="120" height="30" as="geometry" />
        </mxCell>
        <mxCell id="mkbYFUM2Qebnhvb5KgbY-19" style="edgeStyle=orthogonalEdgeStyle;rounded=0;orthogonalLoop=1;jettySize=auto;html=1;exitX=0.5;exitY=1;exitDx=0;exitDy=0;" edge="1" parent="1" source="mkbYFUM2Qebnhvb5KgbY-17" target="mkbYFUM2Qebnhvb5KgbY-17">
          <mxGeometry relative="1" as="geometry" />
        </mxCell>
        <mxCell id="mkbYFUM2Qebnhvb5KgbY-26" style="edgeStyle=orthogonalEdgeStyle;rounded=0;orthogonalLoop=1;jettySize=auto;html=1;" edge="1" parent="1" source="mkbYFUM2Qebnhvb5KgbY-20">
          <mxGeometry relative="1" as="geometry">
            <mxPoint x="403.99" y="500" as="targetPoint" />
          </mxGeometry>
        </mxCell>
        <mxCell id="mkbYFUM2Qebnhvb5KgbY-28" style="edgeStyle=orthogonalEdgeStyle;rounded=0;orthogonalLoop=1;jettySize=auto;html=1;" edge="1" parent="1" source="mkbYFUM2Qebnhvb5KgbY-20" target="mkbYFUM2Qebnhvb5KgbY-27">
          <mxGeometry relative="1" as="geometry">
            <Array as="points">
              <mxPoint x="680" y="500" />
              <mxPoint x="680" y="1060" />
              <mxPoint x="402" y="1060" />
            </Array>
          </mxGeometry>
        </mxCell>
        <mxCell id="mkbYFUM2Qebnhvb5KgbY-20" value="if verify_user()" style="rhombus;whiteSpace=wrap;html=1;" vertex="1" parent="1">
          <mxGeometry x="488.75" y="470" width="110" height="60" as="geometry" />
        </mxCell>
        <mxCell id="mkbYFUM2Qebnhvb5KgbY-27" value="return" style="ellipse;whiteSpace=wrap;html=1;" vertex="1" parent="1">
          <mxGeometry x="366.99" y="1090" width="70" height="40" as="geometry" />
        </mxCell>
        <mxCell id="mkbYFUM2Qebnhvb5KgbY-29" value="True" style="text;html=1;align=center;verticalAlign=middle;whiteSpace=wrap;rounded=0;" vertex="1" parent="1">
          <mxGeometry x="353.99" y="440" width="60" height="30" as="geometry" />
        </mxCell>
        <mxCell id="mkbYFUM2Qebnhvb5KgbY-30" value="True" style="text;html=1;align=center;verticalAlign=middle;whiteSpace=wrap;rounded=0;" vertex="1" parent="1">
          <mxGeometry x="415.49" y="474.5" width="60" height="30" as="geometry" />
        </mxCell>
        <mxCell id="mkbYFUM2Qebnhvb5KgbY-31" value="False" style="text;html=1;align=center;verticalAlign=middle;whiteSpace=wrap;rounded=0;" vertex="1" parent="1">
          <mxGeometry x="598.75" y="475" width="60" height="30" as="geometry" />
        </mxCell>
        <mxCell id="mkbYFUM2Qebnhvb5KgbY-32" value="False" style="text;html=1;align=center;verticalAlign=middle;whiteSpace=wrap;rounded=0;" vertex="1" parent="1">
          <mxGeometry x="442.49" y="350" width="60" height="30" as="geometry" />
        </mxCell>
        <mxCell id="mkbYFUM2Qebnhvb5KgbY-36" style="edgeStyle=orthogonalEdgeStyle;rounded=0;orthogonalLoop=1;jettySize=auto;html=1;entryX=0.5;entryY=0;entryDx=0;entryDy=0;" edge="1" parent="1" source="mkbYFUM2Qebnhvb5KgbY-33" target="mkbYFUM2Qebnhvb5KgbY-35">
          <mxGeometry relative="1" as="geometry" />
        </mxCell>
        <mxCell id="mkbYFUM2Qebnhvb5KgbY-33" value="input income, tax_relief" style="shape=parallelogram;perimeter=parallelogramPerimeter;whiteSpace=wrap;html=1;fixedSize=1;" vertex="1" parent="1">
          <mxGeometry x="342.87" y="590" width="120" height="40" as="geometry" />
        </mxCell>
        <mxCell id="mkbYFUM2Qebnhvb5KgbY-38" style="edgeStyle=orthogonalEdgeStyle;rounded=0;orthogonalLoop=1;jettySize=auto;html=1;entryX=0.5;entryY=0;entryDx=0;entryDy=0;" edge="1" parent="1" source="mkbYFUM2Qebnhvb5KgbY-35" target="mkbYFUM2Qebnhvb5KgbY-37">
          <mxGeometry relative="1" as="geometry" />
        </mxCell>
        <mxCell id="mkbYFUM2Qebnhvb5KgbY-35" value="calculate_tax()" style="shape=process;whiteSpace=wrap;html=1;backgroundOutline=1;" vertex="1" parent="1">
          <mxGeometry x="342.49" y="650" width="120" height="30" as="geometry" />
        </mxCell>
        <mxCell id="mkbYFUM2Qebnhvb5KgbY-41" style="edgeStyle=orthogonalEdgeStyle;rounded=0;orthogonalLoop=1;jettySize=auto;html=1;" edge="1" parent="1" source="mkbYFUM2Qebnhvb5KgbY-37" target="mkbYFUM2Qebnhvb5KgbY-40">
          <mxGeometry relative="1" as="geometry" />
        </mxCell>
        <mxCell id="mkbYFUM2Qebnhvb5KgbY-37" value="tax_relief = calculate_tax()" style="rounded=0;whiteSpace=wrap;html=1;" vertex="1" parent="1">
          <mxGeometry x="320" y="700" width="165" height="30" as="geometry" />
        </mxCell>
        <mxCell id="mkbYFUM2Qebnhvb5KgbY-43" style="edgeStyle=orthogonalEdgeStyle;rounded=0;orthogonalLoop=1;jettySize=auto;html=1;" edge="1" parent="1" source="mkbYFUM2Qebnhvb5KgbY-40" target="mkbYFUM2Qebnhvb5KgbY-42">
          <mxGeometry relative="1" as="geometry" />
        </mxCell>
        <mxCell id="mkbYFUM2Qebnhvb5KgbY-40" value="save_to_csv()" style="shape=process;whiteSpace=wrap;html=1;backgroundOutline=1;" vertex="1" parent="1">
          <mxGeometry x="342.88" y="750" width="120" height="30" as="geometry" />
        </mxCell>
        <mxCell id="mkbYFUM2Qebnhvb5KgbY-45" style="edgeStyle=orthogonalEdgeStyle;rounded=0;orthogonalLoop=1;jettySize=auto;html=1;" edge="1" parent="1" source="mkbYFUM2Qebnhvb5KgbY-42" target="mkbYFUM2Qebnhvb5KgbY-44">
          <mxGeometry relative="1" as="geometry" />
        </mxCell>
        <mxCell id="mkbYFUM2Qebnhvb5KgbY-42" value="read_from_csv()" style="shape=process;whiteSpace=wrap;html=1;backgroundOutline=1;" vertex="1" parent="1">
          <mxGeometry x="342.38" y="800" width="120" height="30" as="geometry" />
        </mxCell>
        <mxCell id="mkbYFUM2Qebnhvb5KgbY-48" style="edgeStyle=orthogonalEdgeStyle;rounded=0;orthogonalLoop=1;jettySize=auto;html=1;entryX=0.5;entryY=0;entryDx=0;entryDy=0;" edge="1" parent="1" source="mkbYFUM2Qebnhvb5KgbY-44" target="mkbYFUM2Qebnhvb5KgbY-47">
          <mxGeometry relative="1" as="geometry" />
        </mxCell>
        <mxCell id="mkbYFUM2Qebnhvb5KgbY-44" value="records=read_from_csv()" style="rounded=0;whiteSpace=wrap;html=1;" vertex="1" parent="1">
          <mxGeometry x="321.63" y="850" width="162.5" height="30" as="geometry" />
        </mxCell>
        <mxCell id="mkbYFUM2Qebnhvb5KgbY-54" style="edgeStyle=orthogonalEdgeStyle;rounded=0;orthogonalLoop=1;jettySize=auto;html=1;entryX=0.5;entryY=0;entryDx=0;entryDy=0;" edge="1" parent="1" source="mkbYFUM2Qebnhvb5KgbY-47" target="mkbYFUM2Qebnhvb5KgbY-51">
          <mxGeometry relative="1" as="geometry" />
        </mxCell>
        <mxCell id="mkbYFUM2Qebnhvb5KgbY-55" style="edgeStyle=orthogonalEdgeStyle;rounded=0;orthogonalLoop=1;jettySize=auto;html=1;entryX=0.5;entryY=0;entryDx=0;entryDy=0;" edge="1" parent="1" source="mkbYFUM2Qebnhvb5KgbY-47" target="mkbYFUM2Qebnhvb5KgbY-50">
          <mxGeometry relative="1" as="geometry" />
        </mxCell>
        <mxCell id="mkbYFUM2Qebnhvb5KgbY-47" value="if records&lt;div&gt;&amp;nbsp;= &amp;lt;none&amp;gt;&lt;/div&gt;" style="rhombus;whiteSpace=wrap;html=1;" vertex="1" parent="1">
          <mxGeometry x="361.99" y="900" width="80" height="80" as="geometry" />
        </mxCell>
        <mxCell id="mkbYFUM2Qebnhvb5KgbY-52" style="edgeStyle=orthogonalEdgeStyle;rounded=0;orthogonalLoop=1;jettySize=auto;html=1;" edge="1" parent="1" source="mkbYFUM2Qebnhvb5KgbY-50">
          <mxGeometry relative="1" as="geometry">
            <mxPoint x="510" y="1060.0000000000002" as="targetPoint" />
          </mxGeometry>
        </mxCell>
        <mxCell id="mkbYFUM2Qebnhvb5KgbY-50" value="print(records)" style="shape=parallelogram;perimeter=parallelogramPerimeter;whiteSpace=wrap;html=1;fixedSize=1;" vertex="1" parent="1">
          <mxGeometry x="450" y="1000" width="120" height="30" as="geometry" />
        </mxCell>
        <mxCell id="mkbYFUM2Qebnhvb5KgbY-53" style="edgeStyle=orthogonalEdgeStyle;rounded=0;orthogonalLoop=1;jettySize=auto;html=1;entryX=0.5;entryY=0;entryDx=0;entryDy=0;" edge="1" parent="1" source="mkbYFUM2Qebnhvb5KgbY-51" target="mkbYFUM2Qebnhvb5KgbY-27">
          <mxGeometry relative="1" as="geometry">
            <Array as="points">
              <mxPoint x="238" y="1060" />
              <mxPoint x="402" y="1060" />
            </Array>
          </mxGeometry>
        </mxCell>
        <mxCell id="mkbYFUM2Qebnhvb5KgbY-51" value="print(&quot;no reocrds found&quot;)" style="shape=parallelogram;perimeter=parallelogramPerimeter;whiteSpace=wrap;html=1;fixedSize=1;" vertex="1" parent="1">
          <mxGeometry x="150" y="1000" width="176.01" height="30" as="geometry" />
        </mxCell>
        <mxCell id="mkbYFUM2Qebnhvb5KgbY-56" value="True" style="text;html=1;align=center;verticalAlign=middle;whiteSpace=wrap;rounded=0;" vertex="1" parent="1">
          <mxGeometry x="266.01" y="910" width="60" height="30" as="geometry" />
        </mxCell>
        <mxCell id="mkbYFUM2Qebnhvb5KgbY-58" value="False" style="text;html=1;align=center;verticalAlign=middle;whiteSpace=wrap;rounded=0;" vertex="1" parent="1">
          <mxGeometry x="450" y="910" width="60" height="30" as="geometry" />
        </mxCell>
        <mxCell id="mkbYFUM2Qebnhvb5KgbY-61" style="edgeStyle=orthogonalEdgeStyle;rounded=0;orthogonalLoop=1;jettySize=auto;html=1;entryX=0.5;entryY=0;entryDx=0;entryDy=0;" edge="1" parent="1" source="mkbYFUM2Qebnhvb5KgbY-60" target="mkbYFUM2Qebnhvb5KgbY-6">
          <mxGeometry relative="1" as="geometry" />
        </mxCell>
        <mxCell id="mkbYFUM2Qebnhvb5KgbY-60" value="main()" style="ellipse;whiteSpace=wrap;html=1;" vertex="1" parent="1">
          <mxGeometry x="375.05" y="110" width="56.63" height="30" as="geometry" />
        </mxCell>
        <mxCell id="mkbYFUM2Qebnhvb5KgbY-62" value="End" style="ellipse;whiteSpace=wrap;html=1;" vertex="1" parent="1">
          <mxGeometry x="129.69" y="260" width="56.63" height="30" as="geometry" />
        </mxCell>
        <mxCell id="mkbYFUM2Qebnhvb5KgbY-64" style="edgeStyle=orthogonalEdgeStyle;rounded=0;orthogonalLoop=1;jettySize=auto;html=1;" edge="1" parent="1" source="mkbYFUM2Qebnhvb5KgbY-63" target="mkbYFUM2Qebnhvb5KgbY-62">
          <mxGeometry relative="1" as="geometry" />
        </mxCell>
        <mxCell id="mkbYFUM2Qebnhvb5KgbY-63" value="main()" style="shape=process;whiteSpace=wrap;html=1;backgroundOutline=1;" vertex="1" parent="1">
          <mxGeometry x="98.01" y="200" width="120" height="30" as="geometry" />
        </mxCell>
      </root>
    </mxGraphModel>
  </diagram>
</mxfile>
